<?xml version="1.0" encoding="utf-8"?>
<!-- Generator: Adobe Illustrator 23.0.3, SVG Export Plug-In . SVG Version: 6.00 Build 0)  -->
<svg version="1.1" id="Layer_1" xmlns="http://www.w3.org/2000/svg" xmlns:xlink="http://www.w3.org/1999/xlink" x="0px" y="0px"
	 viewBox="0 0 11.34 11.34" style="enable-background:new 0 0 11.34 11.34;" xml:space="preserve">
<style type="text/css">
	.st0{fill:none;stroke:#3A1215;stroke-width:0.4;stroke-miterlimit:10;}
</style>
<g>
	<g>
		<path d="M2.58,3.46h0.5l1.14,3.39H3.76L3.17,4.96C3.05,4.58,2.94,4.21,2.84,3.81H2.82C2.71,4.21,2.6,4.58,2.48,4.96l-0.6,1.89
			H1.44L2.58,3.46z M2.05,5.47H3.6v0.35H2.05V5.47z"/>
		<path d="M5.09,6.57H5.07L5.03,6.85H4.69V3.17h0.43v1L5.1,4.66h0.02c0.23-0.23,0.55-0.38,0.84-0.38C6.63,4.28,7,4.78,7,5.55
			c0,0.86-0.54,1.36-1.13,1.36C5.62,6.91,5.32,6.78,5.09,6.57z M6.56,5.56c0-0.55-0.21-0.92-0.71-0.92c-0.22,0-0.48,0.11-0.73,0.37
			v1.25c0.23,0.21,0.5,0.29,0.68,0.29C6.23,6.55,6.56,6.18,6.56,5.56z"/>
		<path d="M7.55,5.6c0-0.84,0.64-1.32,1.4-1.32c0.41,0,0.71,0.17,0.92,0.37L9.65,4.92C9.45,4.74,9.23,4.63,8.96,4.63
			c-0.58,0-0.98,0.39-0.98,0.97c0,0.57,0.39,0.96,0.97,0.96c0.31,0,0.57-0.14,0.78-0.32l0.19,0.28c-0.28,0.25-0.63,0.39-1,0.39
			C8.14,6.91,7.55,6.43,7.55,5.6z"/>
	</g>
</g>
<polyline class="st0" points="1.61,8.13 2.21,7.54 2.77,8.11 3.45,7.55 4.13,8.11 4.81,7.55 5.51,8.13 6.21,7.55 6.91,8.12 
	7.61,7.54 8.33,8.13 9,7.54 9.65,8.13 "/>
</svg>
