<?xml version="1.0" encoding="utf-8"?>
<!-- Generator: Adobe Illustrator 23.0.3, SVG Export Plug-In . SVG Version: 6.00 Build 0)  -->
<svg version="1.1" id="Layer_1" xmlns="http://www.w3.org/2000/svg" xmlns:xlink="http://www.w3.org/1999/xlink" x="0px" y="0px"
	 viewBox="0 0 11.34 11.34" style="enable-background:new 0 0 11.34 11.34;" xml:space="preserve">
<style type="text/css">
	.st0{fill:#FFFFFF;stroke:#000000;stroke-width:0.25;stroke-miterlimit:10;}
	.st1{fill:#FFFFFF;stroke:#000000;stroke-width:0.5;stroke-miterlimit:10;}
	.st2{opacity:0.25;fill:#496CB4;}
</style>
<g>
	<rect x="3.15" y="2.38" class="st0" width="5.04" height="6.2"/>
	<rect x="6.72" y="3.01" width="0.88" height="0.45"/>
	<rect x="6.72" y="3.86" width="0.88" height="0.45"/>
	<rect x="6.72" y="4.72" width="0.9" height="0.45"/>
	<rect x="3.7" y="5.57" width="3.9" height="0.45"/>
	<rect x="3.7" y="6.42" width="1.95" height="0.45"/>
	<rect x="3.7" y="7.28" width="1.95" height="0.45"/>
	<rect x="3.94" y="3.26" class="st1" width="2.19" height="1.66"/>
	<g>
		<rect x="6.51" y="6.54" width="0.88" height="0.24"/>
		<rect x="6.5" y="7.62" width="0.9" height="0.24"/>
		<rect x="6.43" y="7.06" transform="matrix(6.123234e-17 -1 1 6.123234e-17 -0.2311 14.1361)" width="1.04" height="0.24"/>
	</g>
	<polygon class="st2" points="5.88,6.2 5.88,7.86 3.55,7.86 3.55,2.86 7.78,2.86 7.78,6.2 	"/>
</g>
</svg>
