<?xml version="1.0" encoding="utf-8"?>
<!-- Generator: Adobe Illustrator 23.0.3, SVG Export Plug-In . SVG Version: 6.00 Build 0)  -->
<svg version="1.1" id="Layer_1" xmlns="http://www.w3.org/2000/svg" xmlns:xlink="http://www.w3.org/1999/xlink" x="0px" y="0px"
	 viewBox="0 0 11.34 11.34" style="enable-background:new 0 0 11.34 11.34;" xml:space="preserve">
<style type="text/css">
	.st0{stroke:#FFFFFF;stroke-width:0.09;stroke-miterlimit:10;}
</style>
<g>
	<g>
		<path d="M1.93,7.25c0-0.8,0.75-1.19,2.59-1.34c-0.02-0.48-0.26-0.9-0.95-0.9c-0.46,0-0.92,0.22-1.25,0.43L2.09,5.03
			c0.37-0.23,0.97-0.51,1.59-0.51c0.98,0,1.45,0.58,1.45,1.47v2.19H4.63L4.57,7.69H4.55c-0.39,0.31-0.9,0.57-1.4,0.57
			C2.48,8.26,1.93,7.88,1.93,7.25z M4.52,7.24V6.31C3,6.43,2.53,6.73,2.53,7.2c0,0.4,0.37,0.57,0.78,0.57
			C3.72,7.77,4.11,7.58,4.52,7.24z"/>
		<path d="M7,7.77H6.97l-0.06,0.4H6.43V2.94h0.61v1.42L7.01,5.06h0.02c0.32-0.33,0.78-0.54,1.2-0.54c0.96,0,1.48,0.71,1.48,1.81
			c0,1.22-0.76,1.93-1.61,1.93C7.75,8.26,7.33,8.07,7,7.77z M9.09,6.33c0-0.79-0.29-1.31-1.01-1.31c-0.32,0-0.68,0.16-1.04,0.53
			v1.78C7.37,7.63,7.74,7.74,8,7.74C8.62,7.74,9.09,7.22,9.09,6.33z"/>
	</g>
</g>
<rect x="1.29" y="5.78" class="st0" width="8.92" height="0.62"/>
</svg>
